<svg xmlns="http://www.w3.org/2000/svg" width="804" height="186" viewBox="0 0 804 186" font-family="-apple-system,Segoe UI,Helvetica,Arial,sans-serif">
<rect width="804" height="186" rx="12" fill="#0d1117"/>
<text x="16" y="29" fill="#ff7a45" font-size="16" font-weight="700">4.3B tokens</text>
<circle cx="160" cy="25" r="4" fill="#ff7a45"/>
<text x="168" y="29" fill="#8b949e" font-size="11">Claude 4.1B</text>
<circle cx="264" cy="25" r="4" fill="#36c5a0"/>
<text x="272" y="29" fill="#8b949e" font-size="11">Codex 223.2M</text>
<text x="16" y="73" fill="#8b949e" font-size="9">Mon</text>
<text x="16" y="101" fill="#8b949e" font-size="9">Wed</text>
<text x="16" y="129" fill="#8b949e" font-size="9">Fri</text>
<rect x="46" y="48" width="11" height="11" rx="2" fill="#161b22"/>
<text x="46" y="42" fill="#8b949e" font-size="9">May</text>
<rect x="46" y="62" width="11" height="11" rx="2" fill="#161b22"/>
<rect x="46" y="76" width="11" height="11" rx="2" fill="#161b22"/>
<rect x="46" y="90" width="11" height="11" rx="2" fill="#161b22"/>
<rect x="46" y="104" width="11" height="11" rx="2" fill="#161b22"/>
<rect x="46" y="118" width="11" height="11" rx="2" fill="#161b22"/>
<rect x="46" y="132" width="11" height="11" rx="2" fill="#161b22"/>
<rect x="60" y="48" width="11" height="11" rx="2" fill="#161b22"/>
<rect x="60" y="62" width="11" height="11" rx="2" fill="#161b22"/>
<rect x="60" y="76" width="11" height="11" rx="2" fill="#161b22"/>
<rect x="60" y="90" width="11" height="11" rx="2" fill="#161b22"/>
<rect x="60" y="104" width="11" height="11" rx="2" fill="#161b22"/>
<rect x="60" y="118" width="11" height="11" rx="2" fill="#161b22"/>
<rect x="60" y="132" width="11" height="11" rx="2" fill="#161b22"/>
<rect x="74" y="48" width="11" height="11" rx="2" fill="#161b22"/>
<rect x="74" y="62" width="11" height="11" rx="2" fill="#161b22"/>
<rect x="74" y="76" width="11" height="11" rx="2" fill="#161b22"/>
<rect x="74" y="90" width="11" height="11" rx="2" fill="#161b22"/>
<rect x="74" y="104" width="11" height="11" rx="2" fill="#161b22"/>
<rect x="74" y="118" width="11" height="11" rx="2" fill="#161b22"/>
<rect x="74" y="132" width="11" height="11" rx="2" fill="#161b22"/>
<rect x="88" y="48" width="11" height="11" rx="2" fill="#161b22"/>
<text x="88" y="42" fill="#8b949e" font-size="9">Jun</text>
<rect x="88" y="62" width="11" height="11" rx="2" fill="#161b22"/>
<rect x="88" y="76" width="11" height="11" rx="2" fill="#161b22"/>
<rect x="88" y="90" width="11" height="11" rx="2" fill="#161b22"/>
<rect x="88" y="104" width="11" height="11" rx="2" fill="#161b22"/>
<rect x="88" y="118" width="11" height="11" rx="2" fill="#161b22"/>
<rect x="88" y="132" width="11" height="11" rx="2" fill="#161b22"/>
<rect x="102" y="48" width="11" height="11" rx="2" fill="#161b22"/>
<rect x="102" y="62" width="11" height="11" rx="2" fill="#161b22"/>
<rect x="102" y="76" width="11" height="11" rx="2" fill="#161b22"/>
<rect x="102" y="90" width="11" height="11" rx="2" fill="#161b22"/>
<rect x="102" y="104" width="11" height="11" rx="2" fill="#161b22"/>
<rect x="102" y="118" width="11" height="11" rx="2" fill="#161b22"/>
<rect x="102" y="132" width="11" height="11" rx="2" fill="#161b22"/>
<rect x="116" y="48" width="11" height="11" rx="2" fill="#161b22"/>
<rect x="116" y="62" width="11" height="11" rx="2" fill="#161b22"/>
<rect x="116" y="76" width="11" height="11" rx="2" fill="#161b22"/>
<rect x="116" y="90" width="11" height="11" rx="2" fill="#161b22"/>
<rect x="116" y="104" width="11" height="11" rx="2" fill="#161b22"/>
<rect x="116" y="118" width="11" height="11" rx="2" fill="#161b22"/>
<rect x="116" y="132" width="11" height="11" rx="2" fill="#161b22"/>
<rect x="130" y="48" width="11" height="11" rx="2" fill="#161b22"/>
<text x="130" y="42" fill="#8b949e" font-size="9">Jul</text>
<rect x="130" y="62" width="11" height="11" rx="2" fill="#161b22"/>
<rect x="130" y="76" width="11" height="11" rx="2" fill="#161b22"/>
<rect x="130" y="90" width="11" height="11" rx="2" fill="#161b22"/>
<rect x="130" y="104" width="11" height="11" rx="2" fill="#161b22"/>
<rect x="130" y="118" width="11" height="11" rx="2" fill="#161b22"/>
<rect x="130" y="132" width="11" height="11" rx="2" fill="#161b22"/>
<rect x="144" y="48" width="11" height="11" rx="2" fill="#161b22"/>
<rect x="144" y="62" width="11" height="11" rx="2" fill="#161b22"/>
<rect x="144" y="76" width="11" height="11" rx="2" fill="#161b22"/>
<rect x="144" y="90" width="11" height="11" rx="2" fill="#161b22"/>
<rect x="144" y="104" width="11" height="11" rx="2" fill="#161b22"/>
<rect x="144" y="118" width="11" height="11" rx="2" fill="#161b22"/>
<rect x="144" y="132" width="11" height="11" rx="2" fill="#161b22"/>
<rect x="158" y="48" width="11" height="11" rx="2" fill="#161b22"/>
<rect x="158" y="62" width="11" height="11" rx="2" fill="#161b22"/>
<rect x="158" y="76" width="11" height="11" rx="2" fill="#161b22"/>
<rect x="158" y="90" width="11" height="11" rx="2" fill="#161b22"/>
<rect x="158" y="104" width="11" height="11" rx="2" fill="#161b22"/>
<rect x="158" y="118" width="11" height="11" rx="2" fill="#161b22"/>
<rect x="158" y="132" width="11" height="11" rx="2" fill="#161b22"/>
<rect x="172" y="48" width="11" height="11" rx="2" fill="#161b22"/>
<rect x="172" y="62" width="11" height="11" rx="2" fill="#161b22"/>
<rect x="172" y="76" width="11" height="11" rx="2" fill="#161b22"/>
<rect x="172" y="90" width="11" height="11" rx="2" fill="#161b22"/>
<rect x="172" y="104" width="11" height="11" rx="2" fill="#161b22"/>
<rect x="172" y="118" width="11" height="11" rx="2" fill="#161b22"/>
<rect x="172" y="132" width="11" height="11" rx="2" fill="#161b22"/>
<rect x="186" y="48" width="11" height="11" rx="2" fill="#161b22"/>
<text x="186" y="42" fill="#8b949e" font-size="9">Aug</text>
<rect x="186" y="62" width="11" height="11" rx="2" fill="#161b22"/>
<rect x="186" y="76" width="11" height="11" rx="2" fill="#161b22"/>
<rect x="186" y="90" width="11" height="11" rx="2" fill="#161b22"/>
<rect x="186" y="104" width="11" height="11" rx="2" fill="#161b22"/>
<rect x="186" y="118" width="11" height="11" rx="2" fill="#161b22"/>
<rect x="186" y="132" width="11" height="11" rx="2" fill="#161b22"/>
<rect x="200" y="48" width="11" height="11" rx="2" fill="#161b22"/>
<rect x="200" y="62" width="11" height="11" rx="2" fill="#161b22"/>
<rect x="200" y="76" width="11" height="11" rx="2" fill="#161b22"/>
<rect x="200" y="90" width="11" height="11" rx="2" fill="#161b22"/>
<rect x="200" y="104" width="11" height="11" rx="2" fill="#161b22"/>
<rect x="200" y="118" width="11" height="11" rx="2" fill="#161b22"/>
<rect x="200" y="132" width="11" height="11" rx="2" fill="#161b22"/>
<rect x="214" y="48" width="11" height="11" rx="2" fill="#161b22"/>
<rect x="214" y="62" width="11" height="11" rx="2" fill="#161b22"/>
<rect x="214" y="76" width="11" height="11" rx="2" fill="#161b22"/>
<rect x="214" y="90" width="11" height="11" rx="2" fill="#161b22"/>
<rect x="214" y="104" width="11" height="11" rx="2" fill="#161b22"/>
<rect x="214" y="118" width="11" height="11" rx="2" fill="#161b22"/>
<rect x="214" y="132" width="11" height="11" rx="2" fill="#161b22"/>
<rect x="228" y="48" width="11" height="11" rx="2" fill="#161b22"/>
<rect x="228" y="62" width="11" height="11" rx="2" fill="#161b22"/>
<rect x="228" y="76" width="11" height="11" rx="2" fill="#161b22"/>
<rect x="228" y="90" width="11" height="11" rx="2" fill="#161b22"/>
<rect x="228" y="104" width="11" height="11" rx="2" fill="#161b22"/>
<rect x="228" y="118" width="11" height="11" rx="2" fill="#161b22"/>
<rect x="228" y="132" width="11" height="11" rx="2" fill="#161b22"/>
<rect x="242" y="48" width="11" height="11" rx="2" fill="#161b22"/>
<rect x="242" y="62" width="11" height="11" rx="2" fill="#161b22"/>
<rect x="242" y="76" width="11" height="11" rx="2" fill="#161b22"/>
<rect x="242" y="90" width="11" height="11" rx="2" fill="#161b22"/>
<rect x="242" y="104" width="11" height="11" rx="2" fill="#161b22"/>
<rect x="242" y="118" width="11" height="11" rx="2" fill="#161b22"/>
<rect x="242" y="132" width="11" height="11" rx="2" fill="#161b22"/>
<rect x="256" y="48" width="11" height="11" rx="2" fill="#161b22"/>
<text x="256" y="42" fill="#8b949e" font-size="9">Sep</text>
<rect x="256" y="62" width="11" height="11" rx="2" fill="#161b22"/>
<rect x="256" y="76" width="11" height="11" rx="2" fill="#161b22"/>
<rect x="256" y="90" width="11" height="11" rx="2" fill="#161b22"/>
<rect x="256" y="104" width="11" height="11" rx="2" fill="#161b22"/>
<rect x="256" y="118" width="11" height="11" rx="2" fill="#161b22"/>
<rect x="256" y="132" width="11" height="11" rx="2" fill="#161b22"/>
<rect x="270" y="48" width="11" height="11" rx="2" fill="#161b22"/>
<rect x="270" y="62" width="11" height="11" rx="2" fill="#161b22"/>
<rect x="270" y="76" width="11" height="11" rx="2" fill="#161b22"/>
<rect x="270" y="90" width="11" height="11" rx="2" fill="#161b22"/>
<rect x="270" y="104" width="11" height="11" rx="2" fill="#161b22"/>
<rect x="270" y="118" width="11" height="11" rx="2" fill="#161b22"/>
<rect x="270" y="132" width="11" height="11" rx="2" fill="#161b22"/>
<rect x="284" y="48" width="11" height="11" rx="2" fill="#161b22"/>
<rect x="284" y="62" width="11" height="11" rx="2" fill="#161b22"/>
<rect x="284" y="76" width="11" height="11" rx="2" fill="#161b22"/>
<rect x="284" y="90" width="11" height="11" rx="2" fill="#161b22"/>
<rect x="284" y="104" width="11" height="11" rx="2" fill="#161b22"/>
<rect x="284" y="118" width="11" height="11" rx="2" fill="#161b22"/>
<rect x="284" y="132" width="11" height="11" rx="2" fill="#161b22"/>
<rect x="298" y="48" width="11" height="11" rx="2" fill="#161b22"/>
<rect x="298" y="62" width="11" height="11" rx="2" fill="#161b22"/>
<rect x="298" y="76" width="11" height="11" rx="2" fill="#161b22"/>
<rect x="298" y="90" width="11" height="11" rx="2" fill="#161b22"/>
<rect x="298" y="104" width="11" height="11" rx="2" fill="#161b22"/>
<rect x="298" y="118" width="11" height="11" rx="2" fill="#161b22"/>
<rect x="298" y="132" width="11" height="11" rx="2" fill="#161b22"/>
<rect x="312" y="48" width="11" height="11" rx="2" fill="#161b22"/>
<text x="312" y="42" fill="#8b949e" font-size="9">Oct</text>
<rect x="312" y="62" width="11" height="11" rx="2" fill="#161b22"/>
<rect x="312" y="76" width="11" height="11" rx="2" fill="#161b22"/>
<rect x="312" y="90" width="11" height="11" rx="2" fill="#161b22"/>
<rect x="312" y="104" width="11" height="11" rx="2" fill="#161b22"/>
<rect x="312" y="118" width="11" height="11" rx="2" fill="#161b22"/>
<rect x="312" y="132" width="11" height="11" rx="2" fill="#161b22"/>
<rect x="326" y="48" width="11" height="11" rx="2" fill="#161b22"/>
<rect x="326" y="62" width="11" height="11" rx="2" fill="#161b22"/>
<rect x="326" y="76" width="11" height="11" rx="2" fill="#161b22"/>
<rect x="326" y="90" width="11" height="11" rx="2" fill="#161b22"/>
<rect x="326" y="104" width="11" height="11" rx="2" fill="#161b22"/>
<rect x="326" y="118" width="11" height="11" rx="2" fill="#161b22"/>
<rect x="326" y="132" width="11" height="11" rx="2" fill="#161b22"/>
<rect x="340" y="48" width="11" height="11" rx="2" fill="#161b22"/>
<rect x="340" y="62" width="11" height="11" rx="2" fill="#161b22"/>
<rect x="340" y="76" width="11" height="11" rx="2" fill="#161b22"/>
<rect x="340" y="90" width="11" height="11" rx="2" fill="#161b22"/>
<rect x="340" y="104" width="11" height="11" rx="2" fill="#161b22"/>
<rect x="340" y="118" width="11" height="11" rx="2" fill="#161b22"/>
<rect x="340" y="132" width="11" height="11" rx="2" fill="#161b22"/>
<rect x="354" y="48" width="11" height="11" rx="2" fill="#161b22"/>
<rect x="354" y="62" width="11" height="11" rx="2" fill="#161b22"/>
<rect x="354" y="76" width="11" height="11" rx="2" fill="#161b22"/>
<rect x="354" y="90" width="11" height="11" rx="2" fill="#161b22"/>
<rect x="354" y="104" width="11" height="11" rx="2" fill="#161b22"/>
<rect x="354" y="118" width="11" height="11" rx="2" fill="#161b22"/>
<rect x="354" y="132" width="11" height="11" rx="2" fill="#161b22"/>
<rect x="368" y="48" width="11" height="11" rx="2" fill="#161b22"/>
<text x="368" y="42" fill="#8b949e" font-size="9">Nov</text>
<rect x="368" y="62" width="11" height="11" rx="2" fill="#161b22"/>
<rect x="368" y="76" width="11" height="11" rx="2" fill="#161b22"/>
<rect x="368" y="90" width="11" height="11" rx="2" fill="#161b22"/>
<rect x="368" y="104" width="11" height="11" rx="2" fill="#161b22"/>
<rect x="368" y="118" width="11" height="11" rx="2" fill="#161b22"/>
<rect x="368" y="132" width="11" height="11" rx="2" fill="#161b22"/>
<rect x="382" y="48" width="11" height="11" rx="2" fill="#161b22"/>
<rect x="382" y="62" width="11" height="11" rx="2" fill="#161b22"/>
<rect x="382" y="76" width="11" height="11" rx="2" fill="#161b22"/>
<rect x="382" y="90" width="11" height="11" rx="2" fill="#161b22"/>
<rect x="382" y="104" width="11" height="11" rx="2" fill="#161b22"/>
<rect x="382" y="118" width="11" height="11" rx="2" fill="#161b22"/>
<rect x="382" y="132" width="11" height="11" rx="2" fill="#161b22"/>
<rect x="396" y="48" width="11" height="11" rx="2" fill="#161b22"/>
<rect x="396" y="62" width="11" height="11" rx="2" fill="#161b22"/>
<rect x="396" y="76" width="11" height="11" rx="2" fill="#161b22"/>
<rect x="396" y="90" width="11" height="11" rx="2" fill="#161b22"/>
<rect x="396" y="104" width="11" height="11" rx="2" fill="#161b22"/>
<rect x="396" y="118" width="11" height="11" rx="2" fill="#161b22"/>
<rect x="396" y="132" width="11" height="11" rx="2" fill="#161b22"/>
<rect x="410" y="48" width="11" height="11" rx="2" fill="#161b22"/>
<rect x="410" y="62" width="11" height="11" rx="2" fill="#161b22"/>
<rect x="410" y="76" width="11" height="11" rx="2" fill="#161b22"/>
<rect x="410" y="90" width="11" height="11" rx="2" fill="#161b22"/>
<rect x="410" y="104" width="11" height="11" rx="2" fill="#161b22"/>
<rect x="410" y="118" width="11" height="11" rx="2" fill="#161b22"/>
<rect x="410" y="132" width="11" height="11" rx="2" fill="#161b22"/>
<rect x="424" y="48" width="11" height="11" rx="2" fill="#161b22"/>
<rect x="424" y="62" width="11" height="11" rx="2" fill="#161b22"/>
<rect x="424" y="76" width="11" height="11" rx="2" fill="#161b22"/>
<rect x="424" y="90" width="11" height="11" rx="2" fill="#161b22"/>
<rect x="424" y="104" width="11" height="11" rx="2" fill="#161b22"/>
<rect x="424" y="118" width="11" height="11" rx="2" fill="#161b22"/>
<rect x="424" y="132" width="11" height="11" rx="2" fill="#161b22"/>
<rect x="438" y="48" width="11" height="11" rx="2" fill="#161b22"/>
<text x="438" y="42" fill="#8b949e" font-size="9">Dec</text>
<rect x="438" y="62" width="11" height="11" rx="2" fill="#161b22"/>
<rect x="438" y="76" width="11" height="11" rx="2" fill="#161b22"/>
<rect x="438" y="90" width="11" height="11" rx="2" fill="#161b22"/>
<rect x="438" y="104" width="11" height="11" rx="2" fill="#161b22"/>
<rect x="438" y="118" width="11" height="11" rx="2" fill="#161b22"/>
<rect x="438" y="132" width="11" height="11" rx="2" fill="#161b22"/>
<rect x="452" y="48" width="11" height="11" rx="2" fill="#161b22"/>
<rect x="452" y="62" width="11" height="11" rx="2" fill="#161b22"/>
<rect x="452" y="76" width="11" height="11" rx="2" fill="#161b22"/>
<rect x="452" y="90" width="11" height="11" rx="2" fill="#161b22"/>
<rect x="452" y="104" width="11" height="11" rx="2" fill="#161b22"/>
<rect x="452" y="118" width="11" height="11" rx="2" fill="#161b22"/>
<rect x="452" y="132" width="11" height="11" rx="2" fill="#161b22"/>
<rect x="466" y="48" width="11" height="11" rx="2" fill="#161b22"/>
<rect x="466" y="62" width="11" height="11" rx="2" fill="#161b22"/>
<rect x="466" y="76" width="11" height="11" rx="2" fill="#161b22"/>
<rect x="466" y="90" width="11" height="11" rx="2" fill="#161b22"/>
<rect x="466" y="104" width="11" height="11" rx="2" fill="#161b22"/>
<rect x="466" y="118" width="11" height="11" rx="2" fill="#161b22"/>
<rect x="466" y="132" width="11" height="11" rx="2" fill="#161b22"/>
<rect x="480" y="48" width="11" height="11" rx="2" fill="#161b22"/>
<rect x="480" y="62" width="11" height="11" rx="2" fill="#161b22"/>
<rect x="480" y="76" width="11" height="11" rx="2" fill="#161b22"/>
<rect x="480" y="90" width="11" height="11" rx="2" fill="#161b22"/>
<rect x="480" y="104" width="11" height="11" rx="2" fill="#161b22"/>
<rect x="480" y="118" width="11" height="11" rx="2" fill="#161b22"/>
<rect x="480" y="132" width="11" height="11" rx="2" fill="#161b22"/>
<rect x="494" y="48" width="11" height="11" rx="2" fill="#161b22"/>
<text x="494" y="42" fill="#8b949e" font-size="9">Jan</text>
<rect x="494" y="62" width="11" height="11" rx="2" fill="#161b22"/>
<rect x="494" y="76" width="11" height="11" rx="2" fill="#161b22"/>
<rect x="494" y="90" width="11" height="11" rx="2" fill="#161b22"/>
<rect x="494" y="104" width="11" height="11" rx="2" fill="#161b22"/>
<rect x="494" y="118" width="11" height="11" rx="2" fill="#161b22"/>
<rect x="494" y="132" width="11" height="11" rx="2" fill="#161b22"/>
<rect x="508" y="48" width="11" height="11" rx="2" fill="#161b22"/>
<rect x="508" y="62" width="11" height="11" rx="2" fill="#161b22"/>
<rect x="508" y="76" width="11" height="11" rx="2" fill="#161b22"/>
<rect x="508" y="90" width="11" height="11" rx="2" fill="#161b22"/>
<rect x="508" y="104" width="11" height="11" rx="2" fill="#161b22"/>
<rect x="508" y="118" width="11" height="11" rx="2" fill="#161b22"/>
<rect x="508" y="132" width="11" height="11" rx="2" fill="#161b22"/>
<rect x="522" y="48" width="11" height="11" rx="2" fill="#161b22"/>
<rect x="522" y="62" width="11" height="11" rx="2" fill="#161b22"/>
<rect x="522" y="76" width="11" height="11" rx="2" fill="#161b22"/>
<rect x="522" y="90" width="11" height="11" rx="2" fill="#161b22"/>
<rect x="522" y="104" width="11" height="11" rx="2" fill="#161b22"/>
<rect x="522" y="118" width="11" height="11" rx="2" fill="#161b22"/>
<rect x="522" y="132" width="11" height="11" rx="2" fill="#161b22"/>
<rect x="536" y="48" width="11" height="11" rx="2" fill="#161b22"/>
<rect x="536" y="62" width="11" height="11" rx="2" fill="#161b22"/>
<rect x="536" y="76" width="11" height="11" rx="2" fill="#161b22"/>
<rect x="536" y="90" width="11" height="11" rx="2" fill="#161b22"/>
<rect x="536" y="104" width="11" height="11" rx="2" fill="#161b22"/>
<rect x="536" y="118" width="11" height="11" rx="2" fill="#161b22"/>
<rect x="536" y="132" width="11" height="11" rx="2" fill="#161b22"/>
<rect x="550" y="48" width="11" height="11" rx="2" fill="#161b22"/>
<text x="550" y="42" fill="#8b949e" font-size="9">Feb</text>
<rect x="550" y="62" width="11" height="11" rx="2" fill="#161b22"/>
<rect x="550" y="76" width="11" height="11" rx="2" fill="#161b22"/>
<rect x="550" y="90" width="11" height="11" rx="2" fill="#161b22"/>
<rect x="550" y="104" width="11" height="11" rx="2" fill="#161b22"/>
<rect x="550" y="118" width="11" height="11" rx="2" fill="#161b22"/>
<rect x="550" y="132" width="11" height="11" rx="2" fill="#161b22"/>
<rect x="564" y="48" width="11" height="11" rx="2" fill="#161b22"/>
<rect x="564" y="62" width="11" height="11" rx="2" fill="#161b22"/>
<rect x="564" y="76" width="11" height="11" rx="2" fill="#161b22"/>
<rect x="564" y="90" width="11" height="11" rx="2" fill="#161b22"/>
<rect x="564" y="104" width="11" height="11" rx="2" fill="#161b22"/>
<rect x="564" y="118" width="11" height="11" rx="2" fill="#161b22"/>
<rect x="564" y="132" width="11" height="11" rx="2" fill="#161b22"/>
<rect x="578" y="48" width="11" height="11" rx="2" fill="#161b22"/>
<rect x="578" y="62" width="11" height="11" rx="2" fill="#161b22"/>
<rect x="578" y="76" width="11" height="11" rx="2" fill="#161b22"/>
<rect x="578" y="90" width="11" height="11" rx="2" fill="#161b22"/>
<rect x="578" y="104" width="11" height="11" rx="2" fill="#161b22"/>
<rect x="578" y="118" width="11" height="11" rx="2" fill="#161b22"/>
<rect x="578" y="132" width="11" height="11" rx="2" fill="#161b22"/>
<rect x="592" y="48" width="11" height="11" rx="2" fill="#161b22"/>
<rect x="592" y="62" width="11" height="11" rx="2" fill="#161b22"/>
<rect x="592" y="76" width="11" height="11" rx="2" fill="#161b22"/>
<rect x="592" y="90" width="11" height="11" rx="2" fill="#161b22"/>
<rect x="592" y="104" width="11" height="11" rx="2" fill="#161b22"/>
<rect x="592" y="118" width="11" height="11" rx="2" fill="#161b22"/>
<rect x="592" y="132" width="11" height="11" rx="2" fill="#161b22"/>
<rect x="606" y="48" width="11" height="11" rx="2" fill="#161b22"/>
<text x="606" y="42" fill="#8b949e" font-size="9">Mar</text>
<rect x="606" y="62" width="11" height="11" rx="2" fill="#161b22"/>
<rect x="606" y="76" width="11" height="11" rx="2" fill="#161b22"/>
<rect x="606" y="90" width="11" height="11" rx="2" fill="#161b22"/>
<rect x="606" y="104" width="11" height="11" rx="2" fill="#161b22"/>
<rect x="606" y="118" width="11" height="11" rx="2" fill="#161b22"/>
<rect x="606" y="132" width="11" height="11" rx="2" fill="#161b22"/>
<rect x="620" y="48" width="11" height="11" rx="2" fill="#161b22"/>
<rect x="620" y="62" width="11" height="11" rx="2" fill="#161b22"/>
<rect x="620" y="76" width="11" height="11" rx="2" fill="#161b22"/>
<rect x="620" y="90" width="11" height="11" rx="2" fill="#161b22"/>
<rect x="620" y="104" width="11" height="11" rx="2" fill="#161b22"/>
<rect x="620" y="118" width="11" height="11" rx="2" fill="#161b22"/>
<rect x="620" y="132" width="11" height="11" rx="2" fill="#161b22"/>
<rect x="634" y="48" width="11" height="11" rx="2" fill="#161b22"/>
<rect x="634" y="62" width="11" height="11" rx="2" fill="#161b22"/>
<rect x="634" y="76" width="11" height="11" rx="2" fill="#161b22"/>
<rect x="634" y="90" width="11" height="11" rx="2" fill="#161b22"/>
<rect x="634" y="104" width="11" height="11" rx="2" fill="#161b22"/>
<rect x="634" y="118" width="11" height="11" rx="2" fill="#161b22"/>
<rect x="634" y="132" width="11" height="11" rx="2" fill="#161b22"/>
<rect x="648" y="48" width="11" height="11" rx="2" fill="#161b22"/>
<rect x="648" y="62" width="11" height="11" rx="2" fill="#161b22"/>
<rect x="648" y="76" width="11" height="11" rx="2" fill="#161b22"/>
<rect x="648" y="90" width="11" height="11" rx="2" fill="#161b22"/>
<rect x="648" y="104" width="11" height="11" rx="2" fill="#161b22"/>
<rect x="648" y="118" width="11" height="11" rx="2" fill="#161b22"/>
<rect x="648" y="132" width="11" height="11" rx="2" fill="#161b22"/>
<rect x="662" y="48" width="11" height="11" rx="2" fill="#161b22"/>
<rect x="662" y="62" width="11" height="11" rx="2" fill="#161b22"/>
<rect x="662" y="76" width="11" height="11" rx="2" fill="#161b22"/>
<rect x="662" y="90" width="11" height="11" rx="2" fill="#161b22"/>
<rect x="662" y="104" width="11" height="11" rx="2" fill="#161b22"/>
<rect x="662" y="118" width="11" height="11" rx="2" fill="#161b22"/>
<rect x="662" y="132" width="11" height="11" rx="2" fill="#161b22"/>
<rect x="676" y="48" width="11" height="11" rx="2" fill="#161b22"/>
<text x="676" y="42" fill="#8b949e" font-size="9">Apr</text>
<rect x="676" y="62" width="11" height="11" rx="2" fill="#161b22"/>
<rect x="676" y="76" width="11" height="11" rx="2" fill="#161b22"/>
<rect x="676" y="90" width="11" height="11" rx="2" fill="#161b22"/>
<rect x="676" y="104" width="11" height="11" rx="2" fill="#161b22"/>
<rect x="676" y="118" width="11" height="11" rx="2" fill="#161b22"/>
<rect x="676" y="132" width="11" height="11" rx="2" fill="#161b22"/>
<rect x="690" y="48" width="11" height="11" rx="2" fill="#161b22"/>
<rect x="690" y="62" width="11" height="11" rx="2" fill="#161b22"/>
<rect x="690" y="76" width="11" height="11" rx="2" fill="#161b22"/>
<rect x="690" y="90" width="11" height="11" rx="2" fill="#161b22"/>
<rect x="690" y="104" width="11" height="11" rx="2" fill="#161b22"/>
<rect x="690" y="118" width="11" height="11" rx="2" fill="#161b22"/>
<rect x="690" y="132" width="11" height="11" rx="2" fill="#161b22"/>
<rect x="704" y="48" width="11" height="11" rx="2" fill="#161b22"/>
<rect x="704" y="62" width="11" height="11" rx="2" fill="#161b22"/>
<rect x="704" y="76" width="11" height="11" rx="2" fill="#161b22"/>
<rect x="704" y="90" width="11" height="11" rx="2" fill="#161b22"/>
<rect x="704" y="104" width="11" height="11" rx="2" fill="#161b22"/>
<rect x="704" y="118" width="11" height="11" rx="2" fill="#161b22"/>
<rect x="704" y="132" width="11" height="11" rx="2" fill="#161b22"/>
<rect x="718" y="48" width="11" height="11" rx="2" fill="#161b22"/>
<rect x="718" y="62" width="11" height="11" rx="2" fill="#161b22"/>
<rect x="718" y="76" width="11" height="11" rx="2" fill="#161b22"/>
<rect x="718" y="90" width="11" height="11" rx="2" fill="#161b22"/>
<rect x="718" y="104" width="11" height="11" rx="2" fill="#7a3a0a"/>
<rect x="718" y="118" width="11" height="11" rx="2" fill="#161b22"/>
<rect x="718" y="132" width="11" height="11" rx="2" fill="#161b22"/>
<rect x="732" y="48" width="11" height="11" rx="2" fill="#161b22"/>
<text x="732" y="42" fill="#8b949e" font-size="9">May</text>
<rect x="732" y="62" width="11" height="11" rx="2" fill="#c26016"/>
<rect x="732" y="76" width="11" height="11" rx="2" fill="#ff7a45"/>
<rect x="732" y="90" width="11" height="11" rx="2" fill="#ff7a45"/>
<rect x="732" y="104" width="11" height="11" rx="2" fill="#c26016"/>
<rect x="732" y="118" width="11" height="11" rx="2" fill="#ff7a45"/>
<rect x="732" y="132" width="11" height="11" rx="2" fill="#161b22"/>
<rect x="746" y="48" width="11" height="11" rx="2" fill="#161b22"/>
<rect x="746" y="62" width="11" height="11" rx="2" fill="#ff7a45"/>
<rect x="746" y="76" width="11" height="11" rx="2" fill="#ffae80"/>
<rect x="746" y="90" width="11" height="11" rx="2" fill="#161b22"/>
<rect x="746" y="104" width="11" height="11" rx="2" fill="#ff7a45"/>
<rect x="746" y="118" width="11" height="11" rx="2" fill="#161b22"/>
<rect x="746" y="132" width="11" height="11" rx="2" fill="#161b22"/>
<rect x="760" y="48" width="11" height="11" rx="2" fill="#161b22"/>
<rect x="760" y="62" width="11" height="11" rx="2" fill="#ff7a45"/>
<rect x="760" y="76" width="11" height="11" rx="2" fill="#ffae80"/>
<rect x="760" y="90" width="11" height="11" rx="2" fill="#ffae80"/>
<rect x="760" y="104" width="11" height="11" rx="2" fill="#ff7a45"/>
<rect x="760" y="118" width="11" height="11" rx="2" fill="#7a3a0a"/>
<rect x="760" y="132" width="11" height="11" rx="2" fill="#7a3a0a"/>
<rect x="774" y="48" width="11" height="11" rx="2" fill="#7a3a0a"/>
<rect x="774" y="62" width="11" height="11" rx="2" fill="#7a3a0a"/>
<rect x="774" y="76" width="11" height="11" rx="2" fill="#7a3a0a"/>
<rect x="774" y="90" width="11" height="11" rx="2" fill="#7a3a0a"/>
<rect x="774" y="104" width="11" height="11" rx="2" fill="#7a3a0a"/>
<rect x="774" y="118" width="11" height="11" rx="2" fill="#7a3a0a"/>
<rect x="774" y="132" width="11" height="11" rx="2" fill="#161b22"/>
<rect x="788" y="48" width="11" height="11" rx="2" fill="#161b22"/>
<rect x="788" y="62" width="11" height="11" rx="2" fill="#c26016"/>
<rect x="788" y="76" width="11" height="11" rx="2" fill="#ff7a45"/>
<text x="628" y="172" fill="#8b949e" font-size="9">Less</text>
<rect x="658" y="162" width="11" height="11" rx="2" fill="#161b22"/>
<rect x="672" y="162" width="11" height="11" rx="2" fill="#3a1d05"/>
<rect x="686" y="162" width="11" height="11" rx="2" fill="#7a3a0a"/>
<rect x="700" y="162" width="11" height="11" rx="2" fill="#c26016"/>
<rect x="714" y="162" width="11" height="11" rx="2" fill="#ff7a45"/>
<rect x="728" y="162" width="11" height="11" rx="2" fill="#ffae80"/>
<text x="746" y="172" fill="#8b949e" font-size="9">More</text>
</svg>